<svg id="Layer_1" data-name="Layer 1" xmlns="http://www.w3.org/2000/svg" viewBox="0 0 417 156"><defs><style>.cls-1{fill:#f7f1ea;}</style></defs><path class="cls-1" d="M8.76,90.15l0,12.92a1.12,1.12,0,0,0,1.11,1.12l62.76.15a1.12,1.12,0,0,0,1.12-1.12l0-12.92a1.12,1.12,0,0,0-1.11-1.12L9.88,89a1.12,1.12,0,0,0-1.12,1.12"/><path class="cls-1" d="M54.73,73.87l0-15.65a1.12,1.12,0,0,0-1.84-.85L42,66.66a1.12,1.12,0,0,1-1.46,0L29.76,57.33a1.11,1.11,0,0,0-1.85.84l0,15.64a1.1,1.1,0,0,0,.39.85L40.54,85.24a1.11,1.11,0,0,0,1.45,0L54.33,74.71a1.11,1.11,0,0,0,.4-.84"/><path class="cls-1" d="M24,71.24h0l0-18.07a1.1,1.1,0,0,0-.39-.85l-13-11.2A1.12,1.12,0,0,0,8.87,42l-.1,42.71A1.13,1.13,0,0,0,9.89,85.8l13,0A1.12,1.12,0,0,0,24,84.71Z"/><path class="cls-1" d="M59.64,85.91l13,0a1.11,1.11,0,0,0,1.12-1.11l.1-42.71A1.11,1.11,0,0,0,72,41.27L59,52.4a1.11,1.11,0,0,0-.4.85l0,18.07h0l0,13.47a1.12,1.12,0,0,0,1.12,1.12"/><polygon class="cls-1" points="88.88 104.24 93.88 75.2 101.35 75.22 107.14 90.72 112.95 75.24 120.43 75.26 125.29 104.33 117.78 104.31 115.31 87.58 108.41 104.29 105.41 104.28 98.94 87.54 96.39 104.26 88.88 104.24"/><path class="cls-1" d="M136.14,94.41a4.69,4.69,0,0,0,.35,1.8,4.54,4.54,0,0,0,.94,1.44,4.17,4.17,0,0,0,1.42,1,4.61,4.61,0,0,0,1.79.35,4.56,4.56,0,0,0,1.76-.34,4.29,4.29,0,0,0,1.43-1,5.27,5.27,0,0,0,1-1.43,4,4,0,0,0,.37-1.73,4.4,4.4,0,0,0-.36-1.76,4.78,4.78,0,0,0-1-1.44,4.42,4.42,0,0,0-1.42-1,4.53,4.53,0,0,0-5,1,4.86,4.86,0,0,0-.95,1.41,4.22,4.22,0,0,0-.35,1.71m8.81-9.8h7l-.05,19.77h-7v-2.2a7.33,7.33,0,0,1-6,2.8,9.91,9.91,0,0,1-4-.8,9.62,9.62,0,0,1-3.16-2.22,10.53,10.53,0,0,1-2.09-3.36,11.54,11.54,0,0,1-.74-4.21,11.07,11.07,0,0,1,.74-4A10.29,10.29,0,0,1,131.69,87a9.67,9.67,0,0,1,3.13-2.25,9.55,9.55,0,0,1,4-.81A8.06,8.06,0,0,1,145,86.57Z"/><path class="cls-1" d="M158,84.64h7v3.24a8.06,8.06,0,0,1,2.74-2.71,7.36,7.36,0,0,1,3.78-.94h.6a4.27,4.27,0,0,1,.75.07l0,6.67a6.62,6.62,0,0,0-3-.7,4.53,4.53,0,0,0-3.65,1.44,6.37,6.37,0,0,0-1.22,4.21l0,8.48h-7Z"/><polygon class="cls-1" points="184.22 72.48 184.17 91.83 191.51 84.71 201.07 84.74 191.14 93.85 201.6 104.51 191.81 104.48 184.16 96.41 184.14 104.47 177.17 104.45 177.24 72.47 184.22 72.48"/><path class="cls-1" d="M218.62,91.8a4.19,4.19,0,0,0-1.42-2.36,4.06,4.06,0,0,0-2.62-.9,4,4,0,0,0-2.64.85,3.88,3.88,0,0,0-1.3,2.39Zm-8.18,4c0,3,1.4,4.51,4.23,4.52a3.78,3.78,0,0,0,3.43-1.84h6.75q-2.06,6.78-10.23,6.76a13.37,13.37,0,0,1-4.58-.76,10,10,0,0,1-3.56-2.15A9.45,9.45,0,0,1,204.19,99a11,11,0,0,1-.8-4.32,12.45,12.45,0,0,1,.78-4.44,9.37,9.37,0,0,1,2.21-3.37,9.76,9.76,0,0,1,3.45-2.13,14.11,14.11,0,0,1,9.08,0A9.11,9.11,0,0,1,222.3,87a9.49,9.49,0,0,1,2.11,3.49,14,14,0,0,1,.72,4.64v.73Z"/><polygon class="cls-1" points="238.43 90.64 238.4 104.59 231.42 104.58 231.46 90.63 229.14 90.62 229.16 84.8 231.47 84.81 231.48 78.88 238.46 78.89 238.44 84.82 242.41 84.83 242.4 90.65 238.43 90.64"/><path class="cls-1" d="M253.77,104.63l-7,0,0-19.77,7,0ZM246.4,77.25a3.9,3.9,0,0,1,.31-1.52,4.13,4.13,0,0,1,.85-1.25,4.06,4.06,0,0,1,1.26-.85,3.94,3.94,0,0,1,3,0,4,4,0,0,1,1.25.85,4.06,4.06,0,0,1,.85,1.26,3.94,3.94,0,0,1,0,3A4,4,0,0,1,253.1,80a4.13,4.13,0,0,1-1.25.85,3.94,3.94,0,0,1-1.53.3,3.72,3.72,0,0,1-1.52-.31,4,4,0,0,1-1.25-.85,4.13,4.13,0,0,1-.85-1.25,3.94,3.94,0,0,1-.3-1.53"/><path class="cls-1" d="M259.87,84.88h7V87.4a7.65,7.65,0,0,1,2.89-2.33,9.08,9.08,0,0,1,3.44-.59,8.72,8.72,0,0,1,3.56.69,7.09,7.09,0,0,1,2.52,1.91,5.45,5.45,0,0,1,1.15,2.24,11.93,11.93,0,0,1,.3,2.81l0,12.56h-7l0-10a10.8,10.8,0,0,0-.21-2.37,3,3,0,0,0-.74-1.45,2.7,2.7,0,0,0-1-.66,3.88,3.88,0,0,0-1.24-.19,3.39,3.39,0,0,0-2.71,1,4.38,4.38,0,0,0-1,3l0,10.56h-7Z"/><path class="cls-1" d="M293.18,94.74a4.65,4.65,0,0,0,.34,1.8,4.72,4.72,0,0,0,.94,1.44,4.07,4.07,0,0,0,1.43,1,4.61,4.61,0,0,0,1.79.35,4.47,4.47,0,0,0,1.75-.34,4.19,4.19,0,0,0,1.43-1,5,5,0,0,0,1-1.44,4.41,4.41,0,0,0,.37-1.76,4.31,4.31,0,0,0-.36-1.77,4.91,4.91,0,0,0-1-1.43,4.56,4.56,0,0,0-1.45-1,4.4,4.4,0,0,0-1.71-.35,4.12,4.12,0,0,0-1.74.37,5,5,0,0,0-1.42.95,4.72,4.72,0,0,0-1,1.41,4.23,4.23,0,0,0-.37,1.73M308.85,85l0,18.42a21.81,21.81,0,0,1-.2,3,13.08,13.08,0,0,1-.55,2.31,7.19,7.19,0,0,1-1.45,2.37,10,10,0,0,1-2.37,1.9,12.35,12.35,0,0,1-3.15,1.26,15.68,15.68,0,0,1-8-.13,11.7,11.7,0,0,1-3.37-1.61,9.23,9.23,0,0,1-2.36-2.39,7.88,7.88,0,0,1-1.23-3l7.86,0c.49,1.32,1.59,2,3.31,2a4.47,4.47,0,0,0,3.38-1.23,4.77,4.77,0,0,0,1.18-3.42v-1.89a12.35,12.35,0,0,1-1.48,1.21,8.2,8.2,0,0,1-1.45.78,6.65,6.65,0,0,1-1.54.44,9.81,9.81,0,0,1-1.77.13,10.07,10.07,0,0,1-3.9-.74,9,9,0,0,1-5.05-5.19,11.25,11.25,0,0,1-.71-4.07,11.48,11.48,0,0,1,.79-4.22,10.71,10.71,0,0,1,2.1-3.38A9.74,9.74,0,0,1,292,85.24a9.59,9.59,0,0,1,4-.82,7.65,7.65,0,0,1,5.89,2.64V85Z"/><polygon class="cls-1" points="323.06 87.72 332.3 75.76 341.63 75.78 330.07 89.51 342.64 104.84 332.85 104.82 323.05 92.19 323.02 104.79 315.47 104.78 315.54 75.72 323.09 75.74 323.06 87.72"/><path class="cls-1" d="M353.58,104.87l-7,0,.05-19.77,7,0Zm-7.37-27.38a3.86,3.86,0,0,1,.31-1.52,4.06,4.06,0,0,1,.85-1.26,4.21,4.21,0,0,1,1.26-.84,3.94,3.94,0,0,1,3,0,4,4,0,0,1,1.25.85,4.13,4.13,0,0,1,.85,1.25,3.94,3.94,0,0,1,.3,1.53,3.72,3.72,0,0,1-.31,1.52,4.13,4.13,0,0,1-.85,1.25,3.93,3.93,0,0,1-1.25.84,3.77,3.77,0,0,1-1.53.31,3.9,3.9,0,0,1-1.52-.31,4.16,4.16,0,0,1-1.25-.86,3.93,3.93,0,0,1-.84-1.25,3.72,3.72,0,0,1-.31-1.52"/><path class="cls-1" d="M359.68,85.11l7,0v2.5a7.61,7.61,0,0,1,2.89-2.32,8.89,8.89,0,0,1,3.44-.59,8.56,8.56,0,0,1,3.56.68,7.09,7.09,0,0,1,2.52,1.91,5.51,5.51,0,0,1,1.15,2.24,12,12,0,0,1,.3,2.82l0,12.56-7,0,0-10a11.69,11.69,0,0,0-.2-2.37,3.09,3.09,0,0,0-.75-1.44,2.59,2.59,0,0,0-1-.66,3.88,3.88,0,0,0-1.24-.2,3.45,3.45,0,0,0-2.71,1,4.42,4.42,0,0,0-1,3l0,10.56-7,0Z"/><path class="cls-1" d="M393,95a4.62,4.62,0,0,0,.34,1.8,4.57,4.57,0,0,0,.95,1.44,4,4,0,0,0,1.42,1,4.61,4.61,0,0,0,1.79.35,4.38,4.38,0,0,0,1.76-.34,4.24,4.24,0,0,0,1.42-1,5.18,5.18,0,0,0,1-1.42,4.24,4.24,0,0,0,.37-1.74,4.35,4.35,0,0,0-.36-1.75,5.23,5.23,0,0,0-1-1.45,4.42,4.42,0,0,0-1.42-1,4.57,4.57,0,0,0-1.76-.35,4.48,4.48,0,0,0-1.75.35,4.19,4.19,0,0,0-1.43,1,5.08,5.08,0,0,0-1,1.4A4.1,4.1,0,0,0,393,95m8.84-22,7,0-.07,32h-7v-2.2a7.31,7.31,0,0,1-6.06,2.8,9.54,9.54,0,0,1-4-.82,9.83,9.83,0,0,1-3.16-2.24,10.15,10.15,0,0,1-2.09-3.36,11.18,11.18,0,0,1-.74-4.16,11.29,11.29,0,0,1,.72-4,10.07,10.07,0,0,1,2-3.33,9.56,9.56,0,0,1,3.15-2.24,9.67,9.67,0,0,1,4-.82,8.1,8.1,0,0,1,6.13,2.59Z"/></svg>